<svg width="48" height="48" viewBox="0 0 64 64" fill="none" xmlns="http://www.w3.org/2000/svg">
<path d="M56.3075 32.0113C56.1687 21.8963 49.9762 12.8388 40.5 9.22376C30.9487 5.58376 19.6862 8.62501 13.2275 16.5163C6.79999 24.375 5.82624 35.6975 11.0612 44.46C16.2862 53.2038 26.5287 57.71 36.505 55.9138C47.88 53.8675 56.0225 43.6488 56.2987 32.2713C56.3061 32.1848 56.309 32.098 56.3075 32.0113ZM14.8812 21.7975C19.095 14.75 27.5287 10.875 35.625 12.4288C44.3 14.09 50.6787 21.2375 51.7287 29.8038H39.8012C38.7687 26.3838 35.8012 23.8038 31.9737 23.8038C28.2675 23.8038 25.08 26.385 24.085 29.8038H12.2175C12.5183 26.9743 13.4269 24.2432 14.8812 21.7975ZM35.7662 32.0125C35.5162 36.8563 28.1825 36.9375 28.1825 32.0125C28.1825 27.0875 35.5212 27.1663 35.7662 32.0125ZM38.7662 50.7363C30.8562 53.5725 21.875 51.0925 16.5375 44.6025C14.1198 41.6374 12.6182 38.0322 12.2162 34.2275H24.075C25.0637 37.6513 28.2875 40.2275 31.9737 40.2275C35.8075 40.2275 38.7687 37.6425 39.8012 34.2275H51.7325C50.8262 41.625 45.9425 48.165 38.7675 50.7363H38.7662Z" fill="white"/>
</svg>
